<?xml version="1.0" encoding="UTF-8" standalone="no"?>
<!-- Uploaded to: SVG Repo, www.svgrepo.com, Generator: SVG Repo Mixer Tools -->

<svg
   width="666.66669"
   height="666.66669"
   viewBox="0 0 20.000001 20.000001"
   version="1.1"
   id="svg8"
   sodipodi:docname="swap-fill-svgrepo-com.svg"
   inkscape:version="1.2.2 (b0a8486541, 2022-12-01)"
   xmlns:inkscape="http://www.inkscape.org/namespaces/inkscape"
   xmlns:sodipodi="http://sodipodi.sourceforge.net/DTD/sodipodi-0.dtd"
   xmlns="http://www.w3.org/2000/svg"
   xmlns:svg="http://www.w3.org/2000/svg">
  <defs
     id="defs12" />
  <sodipodi:namedview
     id="namedview10"
     pagecolor="#ffffff"
     bordercolor="#000000"
     borderopacity="0.25"
     inkscape:showpageshadow="2"
     inkscape:pageopacity="0.0"
     inkscape:pagecheckerboard="0"
     inkscape:deskcolor="#d1d1d1"
     showgrid="false"
     inkscape:zoom="0.3209375"
     inkscape:cx="-344.3038"
     inkscape:cy="771.17819"
     inkscape:window-width="2560"
     inkscape:window-height="1356"
     inkscape:window-x="0"
     inkscape:window-y="0"
     inkscape:window-maximized="1"
     inkscape:current-layer="svg8" />
  <g
     inkscape:groupmode="layer"
     id="layer1"
     inkscape:label="Layer 1"
     style="display:none" />
  <path
     id="path4-7-5"
     style="fill:#6c5353"
     d="M 15.75375,1.8202149 4.3134376,18.226934 c 1.6144752,1.118037 3.5740183,1.773047 5.6865824,1.773047 5.522994,0 9.999961,-4.476967 9.999961,-9.999961 0,-3.3809954 -1.677837,-6.3698833 -4.246231,-8.1798051 z M 10.999981,9.0000002 H 13.00002 V 13.00002 H 15 L 12,16.5 9.0000002,13.00002 h 1.9999808 z" />
  <path
     id="path287-3"
     style="fill:#a0892c"
     d="M 10.00002,0 C 9.9568711,0 9.913781,2.7544084e-4 9.8707619,8.2031252e-4 9.8277429,0.00136518 9.7848006,0.00219478 9.7419143,0.00328125 9.6990278,0.00436772 9.6561687,0.00569942 9.6134182,0.00732422 c -0.042751,0.0016248 -0.085416,0.00352374 -0.1280274,0.00568359 -0.042611,0.0021599 -0.085148,0.004574 -0.1276172,0.0072656 -0.042469,0.0026916 -0.084884,0.0056861 -0.127207,0.0089062 -0.042323,0.0032201 -0.084564,0.0066843 -0.1267383,0.01042969 -0.042174,0.0037454 -0.084247,0.0077444 -0.1262695,0.01201172 -0.042022,0.0042673 -0.083993,0.0088077 -0.1258594,0.01359374 -0.041867,0.0047861 -0.083683,0.0098157 -0.1253906,0.01511719 -0.041708,0.0053015 -0.083317,0.0108856 -0.1248633,0.01669922 -0.041546,0.0058136 -0.083014,0.01184156 -0.1243946,0.01816406 -0.04138,0.006323 -0.082655,0.012918 -0.1238671,0.0197461 -0.041212,0.006828 -0.082358,0.0139391 -0.1233985,0.0212695 -0.04104,0.00733 -0.082006,0.0149049 -0.1228711,0.0227344 -0.040865,0.00783 -0.081599,0.0158739 -0.1222851,0.0241992 -0.040687,0.008325 -0.081312,0.0169048 -0.1218164,0.0257226 -0.040505,0.008818 -0.080911,0.0178804 -0.1212305,0.0271875 -0.04032,0.009307 -0.080571,0.0188593 -0.1207031,0.0286524 -0.040132,0.009793 -0.080119,0.0198414 -0.1200586,0.0301172 -0.03994,0.0102758 -0.079786,0.0207683 -0.1195313,0.0315234 -0.039746,0.0107552 -0.079398,0.021757 -0.1189453,0.0329883 -0.039548,0.0112313 -0.079013,0.0226903 -0.1183594,0.0343945 -0.039346,0.0117042 -0.078573,0.0236855 -0.1177148,0.0358594 -0.039142,0.0121738 -0.078195,0.0245669 -0.1171289,0.037207 -0.038934,0.0126402 -0.077762,0.02551 -0.1164844,0.0386133 -0.038723,0.0131032 -0.077332,0.0264565 -0.1158399,0.0400195 -0.038508,0.013563 -0.076905,0.0273476 -0.1151953,0.0413672 -0.03829,0.0140196 -0.076481,0.028242 -0.1145508,0.0427148 -0.03807,0.0144728 -0.076061,0.0291983 -0.1139062,0.0441211 -0.037845,0.0149228 -0.075527,0.0300406 -0.1131445,0.0454102 -0.037618,0.0153695 -0.075172,0.0309449 -0.1125586,0.0467578 -0.037387,0.015813 -0.074644,0.0318523 -0.1117969,0.0481055 -0.037153,0.0162531 -0.074178,0.0327631 -0.1110938,0.0494531 -0.036916,0.01669 -0.073715,0.03356 -0.1103906,0.0506836 -0.036675,0.0171236 -0.073256,0.0344773 -0.1096875,0.0520312 -0.036431,0.017554 -0.072742,0.0353393 -0.1089258,0.0533204 -0.036184,0.017981 -0.07223,0.036146 -0.1081641,0.054551 -0.035934,0.018405 -0.071722,0.037015 -0.1074023,0.05584 -0.03568,0.018825 -0.071217,0.037886 -0.1066406,0.057129 -0.035423,0.019243 -0.070716,0.038703 -0.1058789,0.058359 -0.035163,0.019656 -0.070218,0.039522 -0.1051172,0.05959 -0.0349,0.020067 -0.069664,0.040345 -0.1042969,0.06082 -0.034633,0.020475 -0.069114,0.041113 -0.1034766,0.061992 -0.034363,0.020879 -0.068625,0.042001 -0.1027148,0.063281 -0.03409,0.02128 -0.068023,0.042717 -0.1018359,0.064395 -0.033813,0.021678 -0.067483,0.043553 -0.1010157,0.065625 -0.033533,0.022072 -0.066945,0.044334 -0.1001953,0.066797 -0.03325,0.022463 -0.066353,0.045176 -0.099316,0.068027 -0.9889113,0.6855241 -1.8481869,1.5447997 -2.533711,2.533711 -0.022851,0.032964 -0.045564,0.066066 -0.068027,0.099316 -0.022463,0.03325 -0.044725,0.066662 -0.066797,0.1001953 -0.022072,0.033533 -0.043947,0.067203 -0.065625,0.1010157 -0.021678,0.033813 -0.043115,0.067746 -0.064395,0.1018359 -0.02128,0.03409 -0.042402,0.068352 -0.063281,0.1027148 -0.020879,0.034363 -0.041517,0.068844 -0.061992,0.1034766 -0.020475,0.034633 -0.040753,0.069397 -0.06082,0.1042969 -0.020067,0.034899 -0.039933,0.069954 -0.05959,0.1051172 -0.019657,0.035163 -0.039117,0.070455 -0.058359,0.1058789 -0.019243,0.035423 -0.038304,0.07096 -0.057129,0.1066406 -0.018825,0.03568 -0.037435,0.071468 -0.05584,0.1074023 -0.018405,0.035934 -0.03657,0.07198 -0.054551,0.1081641 -0.017981,0.036184 -0.035766,0.072494 -0.0533204,0.1089258 C 0.9685208,5.7009225 0.9511672,5.7375035 0.9340436,5.774179 0.9169199,5.810854 0.90005,5.847654 0.88336,5.8845696 0.86667,5.9214856 0.85016,5.9585106 0.8339069,5.9956634 0.8176538,6.0328164 0.8016144,6.0700734 0.7858014,6.1074603 0.7699884,6.1448473 0.7544131,6.1824013 0.7390436,6.2200189 0.7236741,6.2576369 0.7085562,6.2953179 0.6936334,6.3331634 0.6787106,6.3710084 0.6639851,6.4090004 0.6495123,6.4470696 0.6350395,6.4851396 0.620817,6.5233296 0.6067975,6.5616204 0.5927779,6.5999114 0.5789933,6.6383074 0.5654303,6.6768157 0.5518672,6.7153237 0.538514,6.7539327 0.5254108,6.7926556 0.5123075,6.8313776 0.4994377,6.8702066 0.4867975,6.90914 0.4741573,6.948074 0.4617643,6.987127 0.4495905,7.0262689 0.4374167,7.0654099 0.4254353,7.1046379 0.4137311,7.1439837 0.4020269,7.1833297 0.3905679,7.2227957 0.3793366,7.2623431 0.3681053,7.3018901 0.3571035,7.3415431 0.3463483,7.3812884 0.3355931,7.4210334 0.3251006,7.4608794 0.3148249,7.5008197 0.3045492,7.5407597 0.2945008,7.5807467 0.2847077,7.6208783 0.2749147,7.6610103 0.2653624,7.7012613 0.2560553,7.7415814 0.2467483,7.7819014 0.2376856,7.8223064 0.2288678,7.8628119 0.2200498,7.9033169 0.2114704,7.9439419 0.2031452,7.9846283 0.1948202,8.0253153 0.1867755,8.0660483 0.178946,8.1069134 0.171116,8.1477784 0.1635421,8.1887444 0.1562116,8.2297845 0.1488816,8.2708245 0.1417702,8.3119715 0.1349421,8.353183 0.1281141,8.394395 0.1215185,8.43567 0.115196,8.4770501 0.108874,8.5184311 0.1028456,8.5598991 0.09703194,8.6014447 0.09121834,8.6429907 0.0856342,8.6845997 0.08033272,8.726308 0.07503122,8.768016 0.07000159,8.809832 0.06521553,8.8516986 0.06042953,8.8935656 0.05588913,8.9355356 0.05162179,8.977558 0.04735439,9.01958 0.04335549,9.061653 0.03961007,9.1038275 0.03586467,9.1460015 0.03240057,9.1882425 0.02918038,9.2305658 0.02596018,9.2728888 0.02296578,9.3153038 0.02027418,9.3577728 0.01758258,9.4002418 0.01516838,9.4427788 0.01300858,9.48539 0.01084878,9.528002 0.00894979,9.570667 0.00732499,9.6134174 0.00570019,9.6561684 0.00436849,9.6990274 0.00328202,9.7419135 0.00219478,9.7848006 0.00136518,9.8277429 8.2031252e-4,9.8707619 2.7544084e-4,9.913781 0,9.9568711 0,10.00002 c 0,0.04315 2.7544084e-4,0.08624 8.2031252e-4,0.129258 5.4486748e-4,0.04302 0.001374467,0.08596 0.002460937,0.128847 0.00108647,0.04289 0.00241817,0.08569 0.00404297,0.128438 0.0016248,0.04275 0.00352374,0.08542 0.00568359,0.128027 0.0021599,0.04261 0.004574,0.08515 0.0072656,0.127617 0.0026916,0.04247 0.0056861,0.08488 0.0089062,0.127207 0.0032201,0.04232 0.0066843,0.08456 0.01042969,0.126739 0.0037454,0.04217 0.0077444,0.08431 0.01201172,0.126328 0.0042673,0.04202 0.0088077,0.08393 0.01359374,0.1258 0.0047861,0.04187 0.0098157,0.08368 0.01511719,0.125391 0.0053015,0.04171 0.0108856,0.08332 0.01669922,0.124863 0.0058136,0.04155 0.01184156,0.08301 0.01816406,0.124395 0.006323,0.04138 0.012918,0.08271 0.0197461,0.123926 0.006828,0.04121 0.0139391,0.0823 0.0212695,0.12334 0.00733,0.04104 0.0149049,0.08201 0.0227344,0.122871 0.00783,0.04087 0.0158739,0.08166 0.0241992,0.122343 0.008325,0.04069 0.0169048,0.08125 0.0257226,0.121758 0.008818,0.0405 0.0178804,0.08091 0.0271875,0.121231 0.009307,0.04032 0.0188593,0.08057 0.0286524,0.120703 0.009793,0.04013 0.0198414,0.08018 0.0301172,0.120117 0.0102758,0.03994 0.0207683,0.07979 0.0315234,0.119531 0.0107552,0.03975 0.021757,0.0794 0.0329883,0.118946 0.0112313,0.03955 0.0226903,0.07895 0.0343945,0.1183 0.0117042,0.03935 0.0236855,0.07863 0.0358594,0.117774 0.0121738,0.03914 0.0245669,0.07814 0.037207,0.11707 0.0126402,0.03893 0.02551,0.07776 0.0386133,0.116484 0.0131032,0.03872 0.0264565,0.07739 0.0400195,0.115899 0.013563,0.03851 0.0273476,0.07691 0.0413672,0.115195 0.0140196,0.03829 0.028242,0.07642 0.0427148,0.114492 0.0144728,0.03807 0.0291983,0.07606 0.0441211,0.113907 0.0149228,0.03785 0.0300406,0.07559 0.0454102,0.113203 0.0153695,0.03762 0.0309449,0.07511 0.0467578,0.1125 0.015813,0.03739 0.0318523,0.07464 0.0481055,0.111797 0.0162531,0.03715 0.0327631,0.07418 0.0494531,0.111093 0.01669,0.03692 0.03356,0.07372 0.0506836,0.110391 0.0171236,0.03667 0.0344773,0.07326 0.0520312,0.109688 0.017554,0.03643 0.0353393,0.07274 0.0533204,0.108925 0.017981,0.03618 0.036146,0.07223 0.054551,0.108164 0.018405,0.03593 0.037015,0.07172 0.05584,0.107403 0.018825,0.03568 0.037886,0.07128 0.057129,0.106699 0.019243,0.03542 0.038703,0.07072 0.058359,0.105879 0.019656,0.03516 0.039522,0.07016 0.05959,0.105058 0.020067,0.0349 0.040345,0.06966 0.06082,0.104297 0.020475,0.03463 0.041113,0.06917 0.061992,0.103536 0.020879,0.03436 0.042001,0.06857 0.063281,0.102656 0.02128,0.03409 0.042717,0.06802 0.064395,0.101836 0.021678,0.03381 0.043553,0.06748 0.065625,0.101015 0.022072,0.03353 0.044334,0.06695 0.066797,0.100196 0.022463,0.03325 0.045176,0.06635 0.068027,0.09932 0.6864284,0.990216 1.5470788,1.850496 2.5376368,2.536465 L 15.75375,1.8202149 c -0.02106,-0.014844 -0.0421,-0.02973 -0.06328,-0.044414 -0.03296,-0.022851 -0.06607,-0.045564 -0.09932,-0.068027 -0.03325,-0.022463 -0.06666,-0.044725 -0.100196,-0.066797 -0.03353,-0.022072 -0.0672,-0.043947 -0.101015,-0.065625 -0.03381,-0.021678 -0.06775,-0.043115 -0.101836,-0.064395 -0.03409,-0.02128 -0.0683,-0.042402 -0.102656,-0.063281 -0.03436,-0.020879 -0.0689,-0.041517 -0.103536,-0.061992 -0.03463,-0.020475 -0.0694,-0.040753 -0.104297,-0.06082 -0.0349,-0.020067 -0.0699,-0.039933 -0.105058,-0.05959 -0.03516,-0.019657 -0.07046,-0.039117 -0.105879,-0.058359 -0.03542,-0.019243 -0.07102,-0.038304 -0.106699,-0.057129 -0.03568,-0.018825 -0.07147,-0.037435 -0.107403,-0.05584 -0.03593,-0.018405 -0.07198,-0.03657 -0.108164,-0.054551 -0.03618,-0.017981 -0.07249,-0.035766 -0.108925,-0.0533204 -0.03643,-0.017554 -0.07301,-0.0349076 -0.109688,-0.0520312 -0.03668,-0.0171237 -0.07348,-0.0339936 -0.110391,-0.0506836 -0.03692,-0.01669 -0.07394,-0.0332 -0.111093,-0.0494531 -0.03715,-0.0162531 -0.07441,-0.0322925 -0.111797,-0.0481055 -0.03739,-0.015813 -0.07488,-0.0313883 -0.1125,-0.0467578 C 13.742397,0.7236738 13.704657,0.7085559 13.666814,0.6936331 13.628964,0.6787103 13.590974,0.6639848 13.552907,0.649512 13.514837,0.6350392 13.476707,0.6208167 13.438415,0.6067972 13.400125,0.5927776 13.361725,0.578993 13.32322,0.56543 13.28471,0.5518669 13.24604,0.5385137 13.207321,0.5254105 13.168601,0.5123072 13.129771,0.4994374 13.090837,0.4867972 13.051907,0.474157 13.012907,0.461764 12.973767,0.4495902 12.934627,0.4374164 12.895337,0.425435 12.855993,0.4137308 12.816643,0.4020266 12.777243,0.3905676 12.737693,0.3793363 12.698143,0.368105 12.658493,0.3571032 12.618747,0.346348 12.579007,0.3355928 12.539157,0.3251003 12.499216,0.3148246 12.459276,0.3045489 12.419226,0.2945005 12.379099,0.2847074 12.338969,0.2749144 12.298719,0.2653621 12.258396,0.256055 12.218076,0.246748 12.177666,0.2376853 12.137165,0.2288675 c -0.04051,-0.008818 -0.08107,-0.0173974 -0.121758,-0.0257226 -0.04069,-0.008325 -0.08148,-0.0163697 -0.122343,-0.0241992 -0.04087,-0.00783 -0.08183,-0.0154039 -0.122871,-0.0227344 -0.04104,-0.00733 -0.08213,-0.0144414 -0.12334,-0.0212695 -0.04121,-0.006828 -0.08255,-0.0134236 -0.123926,-0.0197461 -0.04138,-0.006322 -0.08285,-0.0123504 -0.124395,-0.01816406 -0.04155,-0.0058136 -0.08316,-0.01139774 -0.124863,-0.01669922 -0.04171,-0.0053015 -0.08352,-0.01033113 -0.125391,-0.01511719 -0.04187,-0.004786 -0.08378,-0.0093264 -0.1258,-0.01359374 -0.04202,-0.0042674 -0.08415,-0.0082663 -0.126328,-0.01201172 -0.04218,-0.0037454 -0.08441,-0.0072095 -0.126739,-0.01042969 -0.04232,-0.0032202 -0.08474,-0.0062146 -0.127207,-0.0089062 -0.04247,-0.0026916 -0.08501,-0.0051058 -0.127617,-0.0072656 C 10.471977,0.01084848 10.429307,0.00894949 10.38656,0.00732469 10.34381,0.00569989 10.30101,0.00436819 10.258122,0.00328172 10.215239,0.00219478 10.172296,0.00136518 10.129278,8.2031252e-4 10.086258,2.7544084e-4 10.043168,0 10.00002,0 Z M 7.9999806,3.4999805 10.999981,7.0000197 H 9.0000002 V 10.999981 H 7.0000197 V 7.0000197 H 4.9999806 Z" />
  <path
     id="path4-7"
     style="fill:#a0892c;fill-opacity:1"
     d="M 10.00002 0 C 9.9568709 0 9.913781 0.00027544138 9.8707619 0.00082031252 C 9.827743 0.0013651795 9.7848005 0.0021947812 9.7419143 0.0032812501 C 9.6990278 0.004367719 9.6561686 0.0056994205 9.6134182 0.0073242189 C 9.5706672 0.0089490173 9.5280022 0.010847965 9.4853908 0.013007813 C 9.4427799 0.015167711 9.4002428 0.017581841 9.3577736 0.020273438 C 9.3153047 0.022965035 9.2728895 0.025959591 9.2305666 0.029179688 C 9.1882436 0.032399785 9.1460026 0.03586399 9.1038283 0.039609376 C 9.0616543 0.043354772 9.0195812 0.047353779 8.9775588 0.051621095 C 8.9355368 0.05588839 8.8935657 0.06042881 8.8516994 0.065214845 C 8.8098324 0.07000094 8.7680163 0.075030548 8.7263088 0.080332033 C 8.6846008 0.085633528 8.6429917 0.091217638 8.6014455 0.097031252 C 8.5598995 0.10284485 8.5184315 0.10887282 8.4770509 0.11519531 C 8.435671 0.12151831 8.3943958 0.12811332 8.3531838 0.13494141 C 8.3119718 0.1417694 8.2708258 0.14888055 8.2297853 0.15621094 C 8.1887454 0.16354093 8.1477793 0.17111582 8.1069142 0.17894532 C 8.0660493 0.18677531 8.0253151 0.19481924 7.9846291 0.20314454 C 7.9439421 0.21146953 7.903317 0.2200494 7.8628127 0.22886719 C 7.8223077 0.23768518 7.7819016 0.2467476 7.7415822 0.25605469 C 7.7012622 0.26536168 7.6610111 0.27491395 7.6208791 0.28470704 C 7.5807471 0.29450003 7.54076 0.30454844 7.5008205 0.31482422 C 7.4608805 0.32510001 7.4210345 0.33559257 7.3812892 0.34634766 C 7.3415432 0.35710285 7.3018912 0.36810466 7.2623439 0.37933594 C 7.2227959 0.39056723 7.1833309 0.40202629 7.1439845 0.41373048 C 7.1046386 0.42543467 7.0654114 0.43741596 7.0262697 0.44958985 C 6.9871277 0.46176364 6.9480746 0.4741568 6.9091408 0.48679688 C 6.8702068 0.49943707 6.8313787 0.51230688 6.7926564 0.52541017 C 6.7539334 0.53851335 6.7153244 0.55186671 6.6768165 0.5654297 C 6.6383086 0.57899268 6.5999115 0.5927773 6.5616212 0.60679689 C 6.5233313 0.62081647 6.4851402 0.63503895 6.4470704 0.64951173 C 6.4090005 0.66398452 6.3710093 0.67871004 6.3331642 0.69363283 C 6.2953192 0.70855561 6.2576371 0.7236734 6.2200197 0.73904298 C 6.1824017 0.75441247 6.1448476 0.76998791 6.1074611 0.7858008 C 6.0700741 0.80161378 6.032817 0.81765308 5.9956642 0.83390627 C 5.9585112 0.85015935 5.9214862 0.86666941 5.8845704 0.88335939 C 5.8476545 0.90004938 5.8108554 0.9169194 5.7741798 0.93404299 C 5.7375048 0.95116657 5.7009238 0.96852036 5.6644923 0.98607424 C 5.6280613 1.0036282 5.5917503 1.0214135 5.5555665 1.0393946 C 5.5193826 1.0573755 5.4833365 1.0755404 5.4474024 1.0939453 C 5.4114685 1.1123503 5.3756804 1.1309602 5.3400001 1.1497852 C 5.3043201 1.1686102 5.268783 1.1876711 5.2333595 1.2069141 C 5.1979365 1.2261571 5.1626434 1.2456175 5.1274806 1.2652735 C 5.0923176 1.2849294 5.0572625 1.3047953 5.0223634 1.3248633 C 4.9874634 1.3449303 4.9526994 1.3652086 4.9180665 1.3856836 C 4.8834335 1.4061586 4.8489525 1.4267968 4.8145899 1.4476758 C 4.780227 1.4685548 4.7459649 1.4896771 4.7118751 1.5109571 C 4.6777851 1.532237 4.643852 1.5536736 4.6100392 1.5753516 C 4.5762262 1.5970296 4.5425562 1.6189046 4.5090235 1.6409766 C 4.4754906 1.6630486 4.4420785 1.6853105 4.4088282 1.7077735 C 4.3755782 1.7302364 4.3424748 1.7529498 4.3095118 1.7758008 C 3.3206015 2.4613242 2.4613242 3.3206015 1.7758008 4.3095118 C 1.7529498 4.3424758 1.7302364 4.3755782 1.7077735 4.4088282 C 1.6853105 4.4420782 1.6630486 4.4754903 1.6409766 4.5090235 C 1.6189046 4.5425565 1.5970296 4.5762265 1.5753516 4.6100392 C 1.5536736 4.6438521 1.532237 4.6777852 1.5109571 4.7118751 C 1.4896771 4.7459651 1.4685548 4.7802272 1.4476758 4.8145899 C 1.4267968 4.8489529 1.4061586 4.8834339 1.3856836 4.9180665 C 1.3652086 4.9526995 1.3449303 4.9874635 1.3248633 5.0223634 C 1.3047963 5.0572623 1.2849304 5.0923174 1.2652735 5.1274806 C 1.2456165 5.1626435 1.2261561 5.1979356 1.2069141 5.2333595 C 1.1876711 5.2687824 1.1686102 5.3043195 1.1497852 5.3400001 C 1.1309602 5.3756801 1.1123503 5.4114682 1.0939453 5.4474024 C 1.0755404 5.4833364 1.0573755 5.5193825 1.0393946 5.5555665 C 1.0214136 5.5917505 1.0036286 5.6280605 0.98607424 5.6644923 C 0.96852026 5.7009232 0.95116657 5.7375043 0.93404299 5.7741798 C 0.9169193 5.8108548 0.90004938 5.8476549 0.88335939 5.8845704 C 0.86666941 5.9214864 0.85015935 5.9585114 0.83390627 5.9956642 C 0.81765318 6.0328171 0.80161378 6.0700742 0.7858008 6.1074611 C 0.76998781 6.144848 0.75441247 6.1824021 0.73904298 6.2200197 C 0.7236735 6.2576376 0.70855561 6.2953187 0.69363283 6.3331642 C 0.67871004 6.3710091 0.66398452 6.4090013 0.64951173 6.4470704 C 0.63503895 6.4851404 0.62081637 6.5233305 0.60679689 6.5616212 C 0.5927773 6.5999122 0.57899268 6.6383083 0.5654297 6.6768165 C 0.55186661 6.7153245 0.53851335 6.7539335 0.52541017 6.7926564 C 0.51230688 6.8313783 0.49943707 6.8702074 0.48679688 6.9091408 C 0.4741567 6.9480747 0.46176364 6.9871278 0.44958985 7.0262697 C 0.43741606 7.0654106 0.42543467 7.1046388 0.41373048 7.1439845 C 0.40202629 7.1833305 0.39056723 7.2227965 0.37933594 7.2623439 C 0.36810466 7.3018909 0.35710285 7.3415439 0.34634766 7.3812892 C 0.33559247 7.4210342 0.32509991 7.4608802 0.31482422 7.5008205 C 0.30454854 7.5407604 0.29450013 7.5807475 0.28470704 7.6208791 C 0.27491405 7.661011 0.26536178 7.7012621 0.25605469 7.7415822 C 0.2467477 7.7819021 0.23768498 7.8223072 0.22886719 7.8628127 C 0.2200492 7.9033176 0.21146973 7.9439427 0.20314454 7.9846291 C 0.19481954 8.025316 0.18677481 8.0660492 0.17894532 8.1069142 C 0.17111532 8.1477792 0.16354143 8.1887453 0.15621094 8.2297853 C 0.14888095 8.2708253 0.1417695 8.3119723 0.13494141 8.3531838 C 0.12811342 8.3943957 0.12151781 8.4356709 0.11519531 8.4770509 C 0.10887332 8.5184319 0.10284491 8.5598999 0.097031252 8.6014455 C 0.091217658 8.6429914 0.085633508 8.6846005 0.080332033 8.7263088 C 0.075030538 8.7680167 0.0700009 8.8098328 0.065214845 8.8516994 C 0.06042885 8.8935663 0.05588843 8.9355364 0.051621095 8.9775588 C 0.047353699 9.0195807 0.043354792 9.0616538 0.039609376 9.1038283 C 0.03586398 9.1460023 0.032399875 9.1882433 0.029179688 9.2305666 C 0.025959491 9.2728895 0.022965035 9.3153047 0.020273438 9.3577736 C 0.017581841 9.4002426 0.015167611 9.4427797 0.013007813 9.4853908 C 0.010848015 9.5280028 0.0089490173 9.5706678 0.0073242189 9.6134182 C 0.0056994205 9.6561691 0.004367719 9.6990282 0.0032812501 9.7419143 C 0.0021940112 9.7848013 0.0013651795 9.827743 0.00082031252 9.8707619 C 0.00027544138 9.913781 6.9388871e-20 9.9568709 0 10.00002 C 0 10.04317 0.00027544138 10.08626 0.00082031252 10.129278 C 0.0013651795 10.172297 0.0021947812 10.215238 0.0032812501 10.258125 C 0.004367719 10.301015 0.0056994205 10.343815 0.0073242189 10.386563 C 0.0089490173 10.429313 0.010847965 10.471983 0.013007813 10.51459 C 0.015167711 10.5572 0.017581841 10.59974 0.020273438 10.642207 C 0.022965035 10.684677 0.025959591 10.727087 0.029179688 10.769414 C 0.032399785 10.811734 0.03586399 10.853974 0.039609376 10.896153 C 0.043354772 10.938323 0.047353779 10.980463 0.051621095 11.022481 C 0.05588839 11.064501 0.06042881 11.106412 0.065214845 11.148281 C 0.07000094 11.190151 0.075030548 11.231961 0.080332033 11.273672 C 0.085633528 11.315382 0.091217638 11.356992 0.097031252 11.398535 C 0.10284485 11.440085 0.10887282 11.481545 0.11519531 11.52293 C 0.12151831 11.56431 0.12811332 11.60564 0.13494141 11.646856 C 0.1417694 11.688066 0.14888055 11.729156 0.15621094 11.770196 C 0.16354093 11.811236 0.17111582 11.852206 0.17894532 11.893067 C 0.18677531 11.933937 0.19481924 11.974727 0.20314454 12.01541 C 0.21146953 12.0561 0.2200494 12.09666 0.22886719 12.137168 C 0.23768518 12.177668 0.2467476 12.218078 0.25605469 12.258399 C 0.26536168 12.298719 0.27491395 12.338969 0.28470704 12.379102 C 0.29450003 12.419232 0.30454844 12.459282 0.31482422 12.499219 C 0.32510001 12.539159 0.33559257 12.579009 0.34634766 12.61875 C 0.35710285 12.6585 0.36810466 12.69815 0.37933594 12.737696 C 0.39056723 12.777246 0.40202629 12.816646 0.41373048 12.855996 C 0.42543467 12.895346 0.43741596 12.934626 0.44958985 12.97377 C 0.46176364 13.01291 0.4741568 13.05191 0.48679688 13.09084 C 0.49943707 13.12977 0.51230688 13.168601 0.52541017 13.207324 C 0.53851335 13.246044 0.55186671 13.284714 0.5654297 13.323223 C 0.57899268 13.361733 0.5927773 13.400133 0.60679689 13.438418 C 0.62081647 13.476708 0.63503895 13.514838 0.64951173 13.55291 C 0.66398452 13.59098 0.67871004 13.62897 0.69363283 13.666817 C 0.70855561 13.704667 0.7236734 13.742407 0.73904298 13.78002 C 0.75441247 13.81764 0.76998791 13.85513 0.7858008 13.89252 C 0.80161378 13.92991 0.81765308 13.96716 0.83390627 14.004317 C 0.85015935 14.041467 0.86666941 14.078497 0.88335939 14.11541 C 0.90004938 14.15233 0.9169194 14.18913 0.93404299 14.225801 C 0.95116657 14.262471 0.96852036 14.299061 0.98607424 14.335489 C 1.0036282 14.371919 1.0214135 14.408229 1.0393946 14.444414 C 1.0573755 14.480594 1.0755404 14.516644 1.0939453 14.552578 C 1.1123503 14.588508 1.1309602 14.624298 1.1497852 14.659981 C 1.1686102 14.695661 1.1876711 14.731261 1.2069141 14.76668 C 1.2261571 14.8021 1.2456175 14.8374 1.2652735 14.872559 C 1.2849294 14.907719 1.3047953 14.94272 1.3248633 14.977617 C 1.3449303 15.012517 1.3652086 15.047277 1.3856836 15.081914 C 1.4061586 15.116544 1.4267968 15.151084 1.4476758 15.18545 C 1.4685548 15.219809 1.4896771 15.25402 1.5109571 15.288106 C 1.532237 15.322196 1.5536736 15.356126 1.5753516 15.389942 C 1.5970296 15.423752 1.6189046 15.457422 1.6409766 15.490957 C 1.6630486 15.524487 1.6853105 15.557907 1.7077735 15.591153 C 1.7302364 15.624403 1.7529498 15.657499 1.7758008 15.690469 C 2.4622285 16.680684 3.3228806 17.540966 4.3134376 18.226934 C 5.9279112 19.34497 7.8874577 19.999981 10.00002 19.999981 C 15.523008 19.999981 19.999981 15.523008 19.999981 10.00002 C 19.999981 6.6190277 18.322142 3.6301349 15.75375 1.8202149 C 15.73269 1.8053709 15.711649 1.7904848 15.690469 1.7758008 C 15.657509 1.7529498 15.624403 1.7302364 15.591153 1.7077735 C 15.557903 1.6853105 15.524493 1.6630486 15.490957 1.6409766 C 15.457427 1.6189046 15.423757 1.5970296 15.389942 1.5753516 C 15.356132 1.5536736 15.322192 1.532237 15.288106 1.5109571 C 15.254016 1.4896771 15.219805 1.4685548 15.18545 1.4476758 C 15.15109 1.4267968 15.11655 1.4061586 15.081914 1.3856836 C 15.047284 1.3652086 15.012514 1.3449303 14.977617 1.3248633 C 14.942718 1.3047963 14.907717 1.2849304 14.872559 1.2652735 C 14.837399 1.2456165 14.802099 1.2261561 14.76668 1.2069141 C 14.73126 1.1876711 14.69566 1.1686102 14.659981 1.1497852 C 14.624301 1.1309602 14.588511 1.1123503 14.552578 1.0939453 C 14.516648 1.0755404 14.480598 1.0573755 14.444414 1.0393946 C 14.408234 1.0214136 14.371924 1.0036286 14.335489 0.98607424 C 14.299059 0.96852026 14.262479 0.95116657 14.225801 0.93404299 C 14.189121 0.9169193 14.152321 0.90004938 14.11541 0.88335939 C 14.07849 0.86666941 14.04147 0.85015935 14.004317 0.83390627 C 13.967167 0.81765318 13.929907 0.80161378 13.89252 0.7858008 C 13.85513 0.76998781 13.81764 0.75441247 13.78002 0.73904298 C 13.7424 0.7236735 13.70466 0.70855561 13.666817 0.69363283 C 13.628967 0.67871004 13.590977 0.66398452 13.55291 0.64951173 C 13.51484 0.63503895 13.47671 0.62081637 13.438418 0.60679689 C 13.400128 0.5927773 13.361728 0.57899268 13.323223 0.5654297 C 13.284713 0.55186661 13.246043 0.53851335 13.207324 0.52541017 C 13.168605 0.51230688 13.129774 0.49943707 13.09084 0.48679688 C 13.05191 0.4741567 13.01291 0.46176364 12.97377 0.44958985 C 12.93463 0.43741606 12.89534 0.42543467 12.855996 0.41373048 C 12.816646 0.40202629 12.777246 0.39056723 12.737696 0.37933594 C 12.698146 0.36810466 12.658496 0.35710285 12.61875 0.34634766 C 12.57901 0.33559247 12.53916 0.32509991 12.499219 0.31482422 C 12.459279 0.30454854 12.419229 0.29450013 12.379102 0.28470704 C 12.338972 0.27491405 12.298722 0.26536178 12.258399 0.25605469 C 12.218079 0.2467477 12.177669 0.23768498 12.137168 0.22886719 C 12.096658 0.2200492 12.056098 0.21146973 12.01541 0.20314454 C 11.97472 0.19481954 11.93393 0.18677481 11.893067 0.17894532 C 11.852197 0.17111532 11.811237 0.16354143 11.770196 0.15621094 C 11.729156 0.14888095 11.688066 0.1417695 11.646856 0.13494141 C 11.605646 0.12811342 11.564306 0.12151781 11.52293 0.11519531 C 11.48155 0.10887332 11.44008 0.10284491 11.398535 0.097031252 C 11.356985 0.091217658 11.315375 0.085633508 11.273672 0.080332033 C 11.231962 0.075030538 11.190152 0.0700009 11.148281 0.065214845 C 11.106412 0.06042885 11.064501 0.05588843 11.022481 0.051621095 C 10.980461 0.047353699 10.938331 0.043354792 10.896153 0.039609376 C 10.853973 0.03586398 10.811743 0.032399875 10.769414 0.029179688 C 10.727094 0.025959491 10.684674 0.022965035 10.642207 0.020273438 C 10.599737 0.017581841 10.557197 0.015167611 10.51459 0.013007813 C 10.47198 0.010848015 10.42931 0.0089490173 10.386563 0.0073242189 C 10.343813 0.0056994205 10.301013 0.004367719 10.258125 0.0032812501 C 10.215242 0.0021943112 10.172295 0.0013651795 10.129278 0.00082031252 C 10.086258 0.00027544138 10.043168 6.9388871e-20 10.00002 0 z M 10.00002 1.6484766 A 8.3515377 8.3515377 0 0 1 14.810391 3.173086 A 8.3515377 8.3515377 0 0 1 18.351504 10.00002 A 8.3515377 8.3515377 0 0 1 10.00002 18.351504 A 8.3515377 8.3515377 0 0 1 5.2572657 16.87336 A 8.3515377 8.3515377 0 0 1 1.6484766 10.00002 A 8.3515377 8.3515377 0 0 1 10.00002 1.6484766 z M 7.9999806 3.4999805 L 4.9999806 7.0000197 L 7.0000197 7.0000197 L 7.0000197 10.999981 L 9.0000002 10.999981 L 9.0000002 7.0000197 L 10.999981 7.0000197 L 7.9999806 3.4999805 z M 10.999981 9.0000002 L 10.999981 13.00002 L 9.0000002 13.00002 L 12 16.5 L 15 13.00002 L 13.00002 13.00002 L 13.00002 9.0000002 L 10.999981 9.0000002 z " />
  <g
     inkscape:groupmode="layer"
     id="layer2"
     inkscape:label="Layer 2"
     style="display:none" />
  <path
     id="path398"
     style="fill:#ffffff;fill-opacity:1;stroke-width:0.03"
     d="M 10.999981,9.0000002 V 13.00002 H 9.0000002 L 12,16.5 15,13.00002 H 13.00002 V 9.0000002 Z" />
  <path
     id="path234-3"
     style="fill:#ffffff;fill-opacity:1;stroke-width:0.03"
     d="m 7.9999806,3.4999805 -3,3.5000392 H 7.0000197 V 10.999981 H 9.0000002 V 7.0000197 h 1.9999808 z" />
</svg>
