<?xml version="1.0" encoding="UTF-8" standalone="no"?>
<!-- Uploaded to: SVG Repo, www.svgrepo.com, Generator: SVG Repo Mixer Tools -->

<svg
   width="800px"
   height="800px"
   viewBox="0 0 512 512"
   version="1.1"
   id="svg4"
   sodipodi:docname="goose-svgrepo-com.svg"
   inkscape:version="1.2.2 (b0a8486541, 2022-12-01)"
   xmlns:inkscape="http://www.inkscape.org/namespaces/inkscape"
   xmlns:sodipodi="http://sodipodi.sourceforge.net/DTD/sodipodi-0.dtd"
   xmlns="http://www.w3.org/2000/svg"
   xmlns:svg="http://www.w3.org/2000/svg">
  <defs
     id="defs8" />
  <sodipodi:namedview
     id="namedview6"
     pagecolor="#ffffff"
     bordercolor="#000000"
     borderopacity="0.25"
     inkscape:showpageshadow="2"
     inkscape:pageopacity="0.0"
     inkscape:pagecheckerboard="0"
     inkscape:deskcolor="#d1d1d1"
     showgrid="false"
     inkscape:zoom="0.90774833"
     inkscape:cx="584.41308"
     inkscape:cy="419.16904"
     inkscape:window-width="2560"
     inkscape:window-height="1356"
     inkscape:window-x="0"
     inkscape:window-y="0"
     inkscape:window-maximized="1"
     inkscape:current-layer="svg4" />
  <path
     fill="#000000"
     d="m 378.65258,0.00325983 c -3.05827,-0.03765022 -6.30264,0.21191696 -9.76216,0.78527603 C 281.04278,15.353793 327.30629,153.8582 330.06229,234.64696 239.52642,217.08367 149.3337,364.86079 19.052104,399.00308 81.536409,455.44937 240.70433,495.38765 375.91057,411.75037 418.72856,385.26398 424.59769,312.76902 412.85404,234.20377 405.64349,185.96308 335.66571,90.943602 401.80747,82.241022 l 0.65727,-0.542163 c 13.85958,-11.411244 17.86341,-25.64733 24.22737,-40.55359 l 1.82765,-4.277065 C 415.94674,19.639463 403.59532,0.30876448 378.65258,0.00325983 Z m 5.46467,21.11101617 a 9.6814852,9.6814852 0 0 1 9.68148,9.681485 9.6814852,9.6814852 0 0 1 -9.68148,9.681486 9.6814852,9.6814852 0 0 1 -9.68149,-9.681486 9.6814852,9.6814852 0 0 1 9.68149,-9.681485 z m 56.6937,36.759524 c -3.52837,8.78541 -7.97217,18.771324 -15.71843,28.283921 22.62778,8.207748 45.10389,3.311068 67.85538,-0.928347 C 476.25809,75.255293 458.52161,65.656638 440.81095,57.8738 Z m -96.39317,194.76244 c 20.55594,27.88698 22.99245,58.05126 12.51816,84.10306 -10.47429,26.05288 -32.64274,48.18906 -59.88537,65.07034 -54.48524,33.76579 -130.47199,47.81578 -183.46737,18.40558 l 9.39642,-16.92969 c 43.42039,24.09614 114.39428,12.729 163.87312,-17.93227 24.73835,-15.33117 43.80334,-35.15885 52.11759,-55.83635 8.31424,-20.67857 7.09545,-42.01011 -10.13974,-65.39305 l 15.58719,-11.4887 z m -69.82933,218.85427 a 357.87072,357.87072 0 0 1 -20.54088,3.47673 l -3.77363,17.66979 h -14.07473 l 3.77363,-15.96585 a 430.51198,430.51198 0 0 1 -20.27949,1.62004 L 211.72442,512 h 103.04327 v -19.36297 h -44.69404 z"
     id="path2"
     style="stroke-width:1.07572;fill:#ffffff" />
</svg>
