<?xml version="1.0" encoding="UTF-8" standalone="no"?>
<!-- Uploaded to: SVG Repo, www.svgrepo.com, Generator: SVG Repo Mixer Tools -->

<svg
   fill="#000000"
   height="800px"
   width="800px"
   version="1.1"
   id="Capa_1"
   viewBox="0 0 356.139 356.139"
   xml:space="preserve"
   sodipodi:docname="tree-swallow-svgrepo-com.svg"
   inkscape:version="1.2.2 (b0a8486541, 2022-12-01)"
   xmlns:inkscape="http://www.inkscape.org/namespaces/inkscape"
   xmlns:sodipodi="http://sodipodi.sourceforge.net/DTD/sodipodi-0.dtd"
   xmlns="http://www.w3.org/2000/svg"
   xmlns:svg="http://www.w3.org/2000/svg"><defs
   id="defs7" /><sodipodi:namedview
   id="namedview5"
   pagecolor="#ffffff"
   bordercolor="#000000"
   borderopacity="0.25"
   inkscape:showpageshadow="2"
   inkscape:pageopacity="0.0"
   inkscape:pagecheckerboard="0"
   inkscape:deskcolor="#d1d1d1"
   showgrid="false"
   inkscape:zoom="1.28375"
   inkscape:cx="400"
   inkscape:cy="400"
   inkscape:window-width="2560"
   inkscape:window-height="1356"
   inkscape:window-x="0"
   inkscape:window-y="0"
   inkscape:window-maximized="1"
   inkscape:current-layer="Capa_1" />
<path
   d="M354.793,104.763c-2.511-1.906-9.18-6.971-12.648-19.905c-2.417-9.015-18.19-35.172-45.009-35.172  c-4.276,0-8.707,0.663-13.17,1.97c-23.156,6.782-34.079,23.085-43.717,37.469c-3.076,4.591-5.981,8.927-9.078,12.604  c-2.93,3.479-18.62,16.172-35.23,29.612c-14.98,12.119-30.471,24.651-38.267,31.771c-2.794,2.553-5.597,5.077-8.392,7.594  c-10.199,9.186-20.745,18.684-30.307,29.165c-6.033,6.611-13.015,11.184-20.406,16.025c-1.046,0.685-2.099,1.374-3.155,2.074  c-3.544,2.346-7.655,3.474-11.631,4.564c-3.587,0.984-7.295,2.001-10.652,3.909c-0.741,0.423-1.237,1.266-1.296,2.198  c-0.056,0.881,0.298,1.697,0.943,2.183c3.731,2.816,8.505,5.093,13.915,6.649c-0.673,0.396-1.269,0.757-1.829,1.109  c-2.369,1.486-6.843,3.971-12.506,7.116C48.966,258.69,5.423,282.874,0.144,297.743c-0.267,0.751-0.16,1.522,0.299,2.172  c0.785,1.109,2.501,1.557,3.763,0.943c9.223-4.484,12.948-5.694,14.419-5.852c-1.072,1.774-5.936,5.97-7.885,7.652  c-2.707,2.336-2.813,2.403-2.537,3.148l0.261,0.635h0.694l0.177,0.011c18.825-3.094,39.333-10.661,59.167-17.991  c20.744-7.667,40.339-14.901,57.724-17.219c0.507-0.067,1.288-0.098,2.324-0.098c2.382,0,5.938,0.174,10.438,0.394  c7.484,0.365,17.735,0.865,29.219,0.865c33.646,0,60.675-4.46,80.335-13.257c26.452-11.835,43.276-24.514,54.553-41.111  c13.366-19.672,18.459-45.152,15.569-77.895c-0.178-2.009,2.17-5.031,4.888-8.532c3.783-4.871,8.472-10.908,10.544-18.781  c2.347-0.872,6.162-1.731,10.187-2.637c3.687-0.83,7.498-1.688,11.026-2.716c0.431-0.125,0.733-0.447,0.81-0.861  C356.255,105.873,355.736,105.479,354.793,104.763z"
   id="path2"
   style="fill:#ffffff" />
</svg>
