<?xml version="1.0" encoding="UTF-8" standalone="no"?>
<!-- Uploaded to: SVG Repo, www.svgrepo.com, Generator: SVG Repo Mixer Tools -->

<svg
   width="800px"
   height="800px"
   viewBox="0 0 512 512"
   version="1.1"
   id="svg4"
   sodipodi:docname="kiwi-bird-svgrepo-com.svg"
   inkscape:version="1.2.2 (b0a8486541, 2022-12-01)"
   xmlns:inkscape="http://www.inkscape.org/namespaces/inkscape"
   xmlns:sodipodi="http://sodipodi.sourceforge.net/DTD/sodipodi-0.dtd"
   xmlns="http://www.w3.org/2000/svg"
   xmlns:svg="http://www.w3.org/2000/svg">
  <defs
     id="defs8" />
  <sodipodi:namedview
     id="namedview6"
     pagecolor="#ffffff"
     bordercolor="#000000"
     borderopacity="0.25"
     inkscape:showpageshadow="2"
     inkscape:pageopacity="0.0"
     inkscape:pagecheckerboard="0"
     inkscape:deskcolor="#d1d1d1"
     showgrid="false"
     inkscape:zoom="1.28375"
     inkscape:cx="400"
     inkscape:cy="400"
     inkscape:window-width="2560"
     inkscape:window-height="1356"
     inkscape:window-x="0"
     inkscape:window-y="0"
     inkscape:window-maximized="1"
     inkscape:current-layer="svg4" />
  <path
     fill="#000000"
     d="M 251.22866,56.664182 C 167.38133,56.729469 85.339156,112.99983 53.519647,153.52963 -20.952562,248.38861 -62.776125,440.72455 243.16906,390.69014 333.46778,375.92344 390.58686,289.57019 402.642,212.86083 445.48729,227.88977 510.6094,210.23197 512,171.25598 513.86393,118.99638 422.08973,63.103599 369.7235,105.16437 333.55592,70.006549 292.1763,56.632627 251.22866,56.664182 Z M 457.29869,167.15055 a 9.7929617,9.7929617 0 0 1 9.79296,9.79296 9.7929617,9.7929617 0 0 1 -9.79296,9.79297 9.7929617,9.7929617 0 0 1 -9.79296,-9.79297 9.7929617,9.7929617 0 0 1 9.79296,-9.79296 z m 29.68138,61.10155 c -9.69285,4.94545 -20.38677,8.36972 -31.6193,10.05629 23.89483,47.93546 32.01972,100.74781 49.62856,150.62881 3.00426,-35.36239 2.81602,-103.33751 -18.00926,-160.6851 z M 236.95161,412.68839 a 260.23381,260.23381 0 0 1 -19.73934,4.11305 l 23.81539,49.83312 c -19.98852,-0.0599 -41.36656,0.38301 -64.13955,1.5092 l -12.88536,-48.11065 c -7.01829,-0.33731 -13.95606,-0.97929 -20.78828,-1.91942 l 13.70797,51.18564 c -7.72882,0.50053 -15.55557,1.05437 -23.57275,1.71703 l 1.61476,19.51846 c 82.98991,-6.86595 150.11522,-4.59181 199.56315,-0.009 l 1.80625,-19.50105 c -21.34104,-1.97818 -45.90505,-3.52112 -73.47441,-4.12719 z"
     id="path2"
     style="stroke-width:1.08811;fill:#ffffff" />
</svg>
