<?xml version="1.0" encoding="UTF-8" standalone="no"?>
<!-- Uploaded to: SVG Repo, www.svgrepo.com, Generator: SVG Repo Mixer Tools -->

<svg
   width="800px"
   height="800px"
   viewBox="0 0 512 512"
   version="1.1"
   id="svg4"
   sodipodi:docname="swallow-svgrepo-com.svg"
   inkscape:version="1.2.2 (b0a8486541, 2022-12-01)"
   xmlns:inkscape="http://www.inkscape.org/namespaces/inkscape"
   xmlns:sodipodi="http://sodipodi.sourceforge.net/DTD/sodipodi-0.dtd"
   xmlns="http://www.w3.org/2000/svg"
   xmlns:svg="http://www.w3.org/2000/svg">
  <defs
     id="defs8" />
  <sodipodi:namedview
     id="namedview6"
     pagecolor="#ffffff"
     bordercolor="#000000"
     borderopacity="0.25"
     inkscape:showpageshadow="2"
     inkscape:pageopacity="0.0"
     inkscape:pagecheckerboard="0"
     inkscape:deskcolor="#d1d1d1"
     showgrid="false"
     inkscape:zoom="1.28375"
     inkscape:cx="400"
     inkscape:cy="400"
     inkscape:window-width="2560"
     inkscape:window-height="1356"
     inkscape:window-x="0"
     inkscape:window-y="0"
     inkscape:window-maximized="1"
     inkscape:current-layer="svg4" />
  <path
     fill="#000000"
     d="M 80.779634,-0.01 C 265.42819,83.170657 417.27373,210.83055 19.306859,271.89767 143.07468,269.15677 185.39408,294.48264 45.630407,394.79936 297.99002,254.46558 409.27032,187.58776 395.34658,512 428.78549,452.35814 520.98917,247.7778 435.254,217.84723 c 6.79742,-8.11304 16.99354,-21.26933 24.2295,-34.97381 14.36229,-6.24923 24.77769,-14.91046 33.21964,-25.98367 -9.53831,-2.19272 -17.54172,-2.7409 -24.99695,-2.52163 -0.21928,-3.0698 -0.87709,-6.02996 -2.30235,-8.66122 C 455.86552,127.617 412.66903,130.6868 396.99112,132.44097 402.144,43.635999 148.33719,4.0684506 80.779634,-0.01 Z"
     id="path2"
     style="stroke-width:1.09636;fill:#ffffff" />
</svg>
