<?xml version="1.0" encoding="UTF-8" standalone="no"?>
<!-- Uploaded to: SVG Repo, www.svgrepo.com, Generator: SVG Repo Mixer Tools -->

<svg
   fill="#000000"
   height="800px"
   width="800px"
   version="1.1"
   id="Layer_1"
   viewBox="0 0 128 128"
   xml:space="preserve"
   sodipodi:docname="duck-nature-bird-target-svgrepo-com.svg"
   inkscape:version="1.2.2 (b0a8486541, 2022-12-01)"
   xmlns:inkscape="http://www.inkscape.org/namespaces/inkscape"
   xmlns:sodipodi="http://sodipodi.sourceforge.net/DTD/sodipodi-0.dtd"
   xmlns="http://www.w3.org/2000/svg"
   xmlns:svg="http://www.w3.org/2000/svg"><defs
   id="defs7" /><sodipodi:namedview
   id="namedview5"
   pagecolor="#ffffff"
   bordercolor="#000000"
   borderopacity="0.25"
   inkscape:showpageshadow="2"
   inkscape:pageopacity="0.0"
   inkscape:pagecheckerboard="0"
   inkscape:deskcolor="#d1d1d1"
   showgrid="false"
   inkscape:zoom="1.28375"
   inkscape:cx="400"
   inkscape:cy="400"
   inkscape:window-width="2560"
   inkscape:window-height="1356"
   inkscape:window-x="0"
   inkscape:window-y="0"
   inkscape:window-maximized="1"
   inkscape:current-layer="Layer_1" />
<path
   d="m 124.50397,39.339584 h -1.91718 C 109.95595,35.956324 110.85815,32.121963 110.85815,32.121963 109.61762,19.603901 96.422908,19.603901 96.422908,19.603901 77.251102,18.363372 77.251102,41.820641 82.100441,50.166016 c 4.736564,8.345374 -7.668723,12.405286 -21.99119,12.405286 -20.976212,0 -55.1471364,10.14978 -55.1471364,10.14978 L 13.194713,78.247073 0,82.983637 c 9.0220264,2.368282 31.689867,12.743612 31.689867,12.743612 19.735684,11.390311 44.546256,12.405291 44.546256,12.405291 63.154187,4.62379 47.929517,-43.756832 32.817617,-49.62115 -8.79647,-3.383259 -8.23259,-9.134802 -8.23259,-9.134802 0,-1.466078 0.67665,-2.481057 1.69162,-3.270484 h 22.10397 c 1.80441,0 3.38326,-1.466079 3.38326,-3.38326 -0.11277,-1.804405 -1.69163,-3.38326 -3.49603,-3.38326 z"
   id="path2"
   style="stroke-width:1.12775;fill:#ffffff" />
</svg>
