<?xml version="1.0" encoding="UTF-8" standalone="no"?>
<!-- Uploaded to: SVG Repo, www.svgrepo.com, Generator: SVG Repo Mixer Tools -->

<svg
   height="651.87543"
   width="651.87543"
   version="1.1"
   id="_x32_"
   viewBox="0 0 417.20028 417.20027"
   xml:space="preserve"
   sodipodi:docname="pigeon.svg"
   inkscape:version="1.2.2 (b0a8486541, 2022-12-01)"
   xmlns:inkscape="http://www.inkscape.org/namespaces/inkscape"
   xmlns:sodipodi="http://sodipodi.sourceforge.net/DTD/sodipodi-0.dtd"
   xmlns="http://www.w3.org/2000/svg"
   xmlns:svg="http://www.w3.org/2000/svg"><defs
   id="defs11" /><sodipodi:namedview
   id="namedview9"
   pagecolor="#ffffff"
   bordercolor="#000000"
   borderopacity="0.25"
   inkscape:showpageshadow="2"
   inkscape:pageopacity="0.0"
   inkscape:pagecheckerboard="0"
   inkscape:deskcolor="#d1d1d1"
   showgrid="false"
   inkscape:zoom="1.28375"
   inkscape:cx="478.28627"
   inkscape:cy="352.87244"
   inkscape:window-width="2560"
   inkscape:window-height="1355"
   inkscape:window-x="0"
   inkscape:window-y="0"
   inkscape:window-maximized="1"
   inkscape:current-layer="_x32_" />
<style
   type="text/css"
   id="style2">
	.st0{fill:#000000;}
</style>

<rect
   style="fill:none;stroke-width:0.64"
   id="rect164"
   width="417.20029"
   height="417.20029"
   x="-2.8421709e-14"
   y="-7.1054274e-15" /><g
   id="g6"
   transform="matrix(-0.81484436,0,0,0.81484436,417.20075,5.5002856e-4)"
   style="fill:#ffffff">
	<path
   class="st0"
   d="m 441.432,171.312 c 60.976,-32.394 77.624,-46.31 68.046,-50.889 -97.768,-22.306 -229.298,-41.746 -277.896,18.87 -14.921,18.606 -20.896,58.372 -28.492,91.336 -21.398,-20.835 -36.403,-37.183 -40.703,-42.159 -26.3,-30.451 -52.93,-49.08 -88.912,-40.314 -32.89,8.009 -34.571,39.608 -68.196,54.889 -9.428,4.293 -5.284,7.536 5.006,7.153 30.878,-1.148 65.187,4.571 72.047,28.589 5.374,18.81 18.869,108.067 97.784,152.673 78.914,44.606 164.689,6.868 178.409,6.868 13.721,0 94.392,25.398 92.064,8.571 -9.157,-66.32 43.443,-121.217 21.151,-111.504 -27.816,12.121 -118.364,52.044 -145.82,34.886 -0.323,-0.202 -0.638,-0.42 -0.961,-0.63 44.921,-46.624 35.757,-115.452 116.473,-158.339 z"
   id="path4"
   style="fill:#ffffff" />
</g></svg>
